<svg xmlns="http://www.w3.org/2000/svg" xml:space="preserve" width="256" height="256">
  <g style="stroke:none;stroke-width:0;stroke-dasharray:none;stroke-linecap:butt;stroke-linejoin:miter;stroke-miterlimit:10;fill:none;fill-rule:nonzero;opacity:1">
    <path d="M9.476 24.843a23.404 23.404 0 0 1-.058-1.55C9.418 10.579 19.725.272 32.439.272c9.198 0 17.133 5.396 20.82 13.193a16.91 16.91 0 0 1 9.827-3.142c8.48 0 15.49 6.212 16.778 14.329C85.703 26.249 90 31.578 90 37.924c0 7.607-6.167 13.774-13.774 13.774H13.774C6.167 51.697 0 45.531 0 37.924c0-6.105 3.976-11.274 9.476-13.081z" style="stroke:none;stroke-width:1;stroke-dasharray:none;stroke-linecap:butt;stroke-linejoin:miter;stroke-miterlimit:10;fill:#62c3f7;fill-rule:nonzero;opacity:1" transform="matrix(2.81 0 0 2.81 1.407 1.407)"/>
    <path d="M65.455 71.319a1.022 1.022 0 0 1-1.023-1.023V60.75a1.022 1.022 0 1 1 2.046 0v9.546a1.023 1.023 0 0 1-1.023 1.023zM65.455 89.728a1.022 1.022 0 0 1-1.023-1.023V79.16a1.022 1.022 0 1 1 2.046 0v9.546a1.023 1.023 0 0 1-1.023 1.022zM55.227 81.547a1.022 1.022 0 0 1-1.023-1.023v-9.546a1.022 1.022 0 1 1 2.046 0v9.546c0 .565-.457 1.023-1.023 1.023zM45 71.319a1.022 1.022 0 0 1-1.023-1.023V60.75a1.023 1.023 0 1 1 2.046 0v9.546c0 .566-.458 1.023-1.023 1.023zM45 89.728a1.022 1.022 0 0 1-1.023-1.023V79.16a1.023 1.023 0 1 1 2.046 0v9.546c0 .565-.458 1.022-1.023 1.022zM34.773 81.547a1.022 1.022 0 0 1-1.023-1.023v-9.546a1.023 1.023 0 1 1 2.046 0v9.546a1.024 1.024 0 0 1-1.023 1.023zM24.545 71.319a1.022 1.022 0 0 1-1.023-1.023V60.75a1.023 1.023 0 1 1 2.046 0v9.546c0 .566-.458 1.023-1.023 1.023zM24.545 89.728a1.022 1.022 0 0 1-1.023-1.023V79.16a1.023 1.023 0 1 1 2.046 0v9.546c0 .565-.458 1.022-1.023 1.022z" style="stroke:none;stroke-width:1;stroke-dasharray:none;stroke-linecap:butt;stroke-linejoin:miter;stroke-miterlimit:10;fill:#7bd8f7;fill-rule:nonzero;opacity:1" transform="matrix(2.81 0 0 2.81 1.407 1.407)"/>
  </g>
</svg>
